<svg width="18" height="18" viewBox="0 0 18 18" fill="none" xmlns="http://www.w3.org/2000/svg">
<path d="M7.82227 1.42212V2.84434" stroke="white" stroke-width="1.06667" stroke-linecap="round" stroke-linejoin="round"/>
<path d="M3.55566 1.42212V2.84434" stroke="white" stroke-width="1.06667" stroke-linecap="round" stroke-linejoin="round"/>
<path d="M3.5557 2.1333H2.84459C2.46739 2.1333 2.10564 2.28314 1.83892 2.54986C1.5722 2.81658 1.42236 3.17833 1.42236 3.55552V6.39997C1.42236 7.53156 1.87189 8.6168 2.67204 9.41696C3.4722 10.2171 4.55744 10.6666 5.68903 10.6666C6.82062 10.6666 7.90586 10.2171 8.70602 9.41696C9.50617 8.6168 9.9557 7.53156 9.9557 6.39997V3.55552C9.9557 3.17833 9.80586 2.81658 9.53914 2.54986C9.27242 2.28314 8.91067 2.1333 8.53347 2.1333H7.82236" stroke="white" stroke-width="1.06667" stroke-linecap="round" stroke-linejoin="round"/>
<path d="M5.68896 10.6665C5.68896 11.7981 6.13849 12.8834 6.93864 13.6835C7.7388 14.4837 8.82404 14.9332 9.95563 14.9332C11.0872 14.9332 12.1725 14.4837 12.9726 13.6835C13.7728 12.8834 14.2223 11.7981 14.2223 10.6665V8.5332" stroke="white" stroke-width="1.06667" stroke-linecap="round" stroke-linejoin="round"/>
<path d="M14.2225 8.53317C15.008 8.53317 15.6447 7.89641 15.6447 7.11094C15.6447 6.32547 15.008 5.68872 14.2225 5.68872C13.437 5.68872 12.8003 6.32547 12.8003 7.11094C12.8003 7.89641 13.437 8.53317 14.2225 8.53317Z" stroke="white" stroke-width="1.06667" stroke-linecap="round" stroke-linejoin="round"/>
</svg>
